<svg xmlns="http://www.w3.org/2000/svg" version="1.1" xmlns:xlink="http://www.w3.org/1999/xlink" width="200" height="200"><svg xmlns="http://www.w3.org/2000/svg" version="1.1" xmlns:xlink="http://www.w3.org/1999/xlink" viewBox="0 0 200 200"><rect width="200" height="200" fill="url('#gradient')"></rect><defs><linearGradient id="SvgjsLinearGradient1001" gradientTransform="rotate(45 0.5 0.5)"><stop offset="0%" stop-color="#2c7bfe"></stop><stop offset="100%" stop-color="#0a58ca"></stop></linearGradient></defs><g><g fill="#ffcc00" transform="matrix(1.3952009688895617,0,0,1.3952009688895617,8.568279038081243,109.9241367540698)" stroke="#ec7313" stroke-width="0"><path d="M8.80-14.22L12.23-14.22L12.23-4.91Q12.23-3.33 11.55-2.17Q10.88-1.02 9.62-0.41Q8.36 0.20 6.64 0.20L6.64 0.20Q4.04 0.20 2.55-1.15Q1.05-2.50 1.03-4.84L1.03-4.84L1.03-14.22L4.47-14.22L4.47-4.78Q4.53-2.44 6.64-2.44L6.64-2.44Q7.71-2.44 8.25-3.03Q8.80-3.61 8.80-4.93L8.80-4.93L8.80-14.22ZM22.16 0L19.65-5.02L17.79-5.02L17.79 0L14.37 0L14.37-14.22L19.96-14.22Q22.49-14.22 23.92-13.10Q25.34-11.97 25.34-9.92L25.34-9.92Q25.34-8.44 24.74-7.46Q24.14-6.48 22.86-5.88L22.86-5.88L25.83-0.15L25.83 0L22.16 0ZM17.79-11.57L17.79-7.67L19.96-7.67Q20.94-7.67 21.43-8.18Q21.92-8.69 21.92-9.61Q21.92-10.53 21.43-11.05Q20.93-11.57 19.96-11.57L19.96-11.57L17.79-11.57ZM36.32 0L35.49-2.66L30.79-2.66L29.97 0L26.31 0L31.52-14.22L34.75-14.22L40 0L36.32 0ZM33.13-10.23L31.61-5.30L34.67-5.30L33.13-10.23ZM49.99-8.30L49.99-5.66L44.46-5.66L44.46 0L41.04 0L41.04-14.22L50.55-14.22L50.55-11.57L44.46-11.57L44.46-8.30L49.99-8.30ZM55.63-14.22L55.63 0L52.21 0L52.21-14.22L55.63-14.22ZM65.87 0L62.84-5.29L61.44-3.75L61.44 0L58.01 0L58.01-14.22L61.44-14.22L61.44-7.95L62.63-9.76L65.69-14.22L69.93-14.22L65.13-7.93L69.93 0L65.87 0ZM74.45-14.22L74.45 0L71.04 0L71.04-14.22L74.45-14.22ZM92.39-14.22L92.39-11.57L88.13-11.57L88.13 0L84.70 0L84.70-11.57L80.51-11.57L80.51-14.22L92.39-14.22ZM102.66-8.57L102.66-6.03L97.27-6.03L97.27-2.64L103.63-2.64L103.63 0L93.84 0L93.84-14.22L103.65-14.22L103.65-11.57L97.27-11.57L97.27-8.57L102.66-8.57ZM113.13-4.81L116.53-4.81Q116.46-3.33 115.73-2.19Q115-1.05 113.68-0.43Q112.35 0.20 110.65 0.20L110.65 0.20Q107.85 0.20 106.24-1.63Q104.63-3.46 104.63-6.79L104.63-6.79L104.63-7.49Q104.63-9.58 105.36-11.15Q106.08-12.71 107.45-13.57Q108.82-14.42 110.62-14.42L110.62-14.42Q113.20-14.42 114.78-13.06Q116.35-11.70 116.56-9.31L116.56-9.31L113.14-9.31Q113.11-10.61 112.49-11.17Q111.88-11.74 110.62-11.74L110.62-11.74Q109.34-11.74 108.74-10.78Q108.14-9.82 108.12-7.72L108.12-7.72L108.12-6.72Q108.12-4.44 108.69-3.47Q109.26-2.49 110.65-2.49L110.65-2.49Q111.84-2.49 112.46-3.05Q113.09-3.60 113.13-4.81L113.13-4.81ZM130.04-14.22L130.04 0L126.63 0L126.63-5.94L121.58-5.94L121.58 0L118.15 0L118.15-14.22L121.58-14.22L121.58-8.57L126.63-8.57L126.63-14.22L130.04-14.22Z"></path></g></g></svg><style>@media (prefers-color-scheme: light) { :root { filter: none; } }
@media (prefers-color-scheme: dark) { :root { filter: none; } }
</style></svg>